<?xml version="1.0" encoding="UTF-8" standalone="no"?>
<!DOCTYPE svg PUBLIC "-//W3C//DTD SVG 1.1//EN"
 "http://www.w3.org/Graphics/SVG/1.1/DTD/svg11.dtd">
<!-- Generated by graphviz version 12.0.0 (20240704.0754)
 -->
<!-- Title: pipeline Pages: 1 -->
<svg width="917pt" height="246pt"
 viewBox="0.00 0.00 917.25 246.00" xmlns="http://www.w3.org/2000/svg" xmlns:xlink="http://www.w3.org/1999/xlink">
<g id="graph0" class="graph" transform="scale(1 1) rotate(0) translate(4 242)">
<title>pipeline</title>
<polygon fill="white" stroke="none" points="-4,4 -4,-242 913.25,-242 913.25,4 -4,4"/>
<g id="clust1" class="cluster">
<title>cluster_colo</title>
<polygon fill="none" stroke="black" points="8,-8 8,-230 332.25,-230 332.25,-8 8,-8"/>
<text text-anchor="middle" x="29.88" y="-212.7" font-family="Helvetica,Arial,sans-serif" font-size="14.00">Colo</text>
</g>
<g id="clust2" class="cluster">
<title>cluster_kubernetes</title>
<polygon fill="none" stroke="black" points="141.25,-16 141.25,-199 324.25,-199 324.25,-16 141.25,-16"/>
<text text-anchor="middle" x="183.75" y="-181.7" font-family="Helvetica,Arial,sans-serif" font-size="14.00">Kubernetes</text>
</g>
<g id="clust3" class="cluster">
<title>cluster_aws</title>
<polygon fill="none" stroke="black" points="351.25,-91 351.25,-220 901.25,-220 901.25,-91 351.25,-91"/>
<text text-anchor="middle" x="374.62" y="-202.7" font-family="Helvetica,Arial,sans-serif" font-size="14.00">AWS</text>
</g>
<!-- Dumper 1 -->
<g id="node1" class="node">
<title>Dumper 1</title>
<polygon fill="none" stroke="black" points="225.25,-60 149.25,-60 149.25,-24 225.25,-24 225.25,-60"/>
<text text-anchor="middle" x="187.25" y="-36.2" font-family="Helvetica,Arial,sans-serif" font-size="14.00">Dumper 1</text>
</g>
<!-- S3 -->
<g id="node2" class="node">
<title>S3</title>
<polygon fill="none" stroke="black" points="316.25,-114 262.25,-114 262.25,-78 316.25,-78 316.25,-114"/>
<text text-anchor="middle" x="289.25" y="-90.2" font-family="Helvetica,Arial,sans-serif" font-size="14.00">S3</text>
</g>
<!-- Dumper 1&#45;&gt;S3 -->
<g id="edge1" class="edge">
<title>Dumper 1&#45;&gt;S3</title>
<path fill="none" stroke="black" d="M222.38,-60.43C231.86,-65.55 242.18,-71.12 251.78,-76.31"/>
<polygon fill="black" stroke="black" points="250.05,-79.35 260.51,-81.02 253.38,-73.19 250.05,-79.35"/>
</g>
<!-- Ingestion Lambda -->
<g id="node6" class="node">
<title>Ingestion Lambda</title>
<polygon fill="none" stroke="black" points="483.25,-135 359.25,-135 359.25,-99 483.25,-99 483.25,-135"/>
<text text-anchor="middle" x="421.25" y="-111.2" font-family="Helvetica,Arial,sans-serif" font-size="14.00">Ingestion Lambda</text>
</g>
<!-- S3&#45;&gt;Ingestion Lambda -->
<g id="edge7" class="edge">
<title>S3&#45;&gt;Ingestion Lambda</title>
<path fill="none" stroke="black" d="M316.56,-100.25C325.74,-101.73 336.54,-103.48 347.64,-105.27"/>
<polygon fill="black" stroke="black" points="346.87,-108.69 357.3,-106.83 347.98,-101.78 346.87,-108.69"/>
</g>
<!-- DLQ Lambda -->
<g id="node9" class="node">
<title>DLQ Lambda</title>
<polygon fill="none" stroke="black" points="791.5,-162 693.75,-162 693.75,-126 791.5,-126 791.5,-162"/>
<text text-anchor="middle" x="742.62" y="-138.2" font-family="Helvetica,Arial,sans-serif" font-size="14.00">DLQ Lambda</text>
</g>
<!-- S3&#45;&gt;DLQ Lambda -->
<g id="edge11" class="edge">
<title>S3&#45;&gt;DLQ Lambda</title>
<path fill="none" stroke="black" d="M316.73,-90.34C378.04,-78.33 533.94,-54.24 656.75,-90 676.47,-95.74 695.98,-107.6 711.32,-118.75"/>
<polygon fill="black" stroke="black" points="708.99,-121.38 719.08,-124.62 713.22,-115.8 708.99,-121.38"/>
</g>
<!-- Dumper 2 -->
<g id="node3" class="node">
<title>Dumper 2</title>
<polygon fill="none" stroke="black" points="225.25,-114 149.25,-114 149.25,-78 225.25,-78 225.25,-114"/>
<text text-anchor="middle" x="187.25" y="-90.2" font-family="Helvetica,Arial,sans-serif" font-size="14.00">Dumper 2</text>
</g>
<!-- Dumper 2&#45;&gt;S3 -->
<g id="edge2" class="edge">
<title>Dumper 2&#45;&gt;S3</title>
<path fill="none" stroke="black" d="M225.49,-96C233.62,-96 242.24,-96 250.39,-96"/>
<polygon fill="black" stroke="black" points="250.39,-99.5 260.39,-96 250.39,-92.5 250.39,-99.5"/>
</g>
<!-- Dumper 3 -->
<g id="node4" class="node">
<title>Dumper 3</title>
<polygon fill="none" stroke="black" points="225.25,-168 149.25,-168 149.25,-132 225.25,-132 225.25,-168"/>
<text text-anchor="middle" x="187.25" y="-144.2" font-family="Helvetica,Arial,sans-serif" font-size="14.00">Dumper 3</text>
</g>
<!-- Dumper 3&#45;&gt;S3 -->
<g id="edge3" class="edge">
<title>Dumper 3&#45;&gt;S3</title>
<path fill="none" stroke="black" d="M222.38,-131.57C231.86,-126.45 242.18,-120.88 251.78,-115.69"/>
<polygon fill="black" stroke="black" points="253.38,-118.81 260.51,-110.98 250.05,-112.65 253.38,-118.81"/>
</g>
<!-- Elasticsearch -->
<g id="node5" class="node">
<title>Elasticsearch</title>
<polygon fill="none" stroke="black" points="112.25,-114 16,-114 16,-78 112.25,-78 112.25,-114"/>
<text text-anchor="middle" x="64.12" y="-90.2" font-family="Helvetica,Arial,sans-serif" font-size="14.00">Elasticsearch</text>
</g>
<!-- Elasticsearch&#45;&gt;Dumper 1 -->
<g id="edge4" class="edge">
<title>Elasticsearch&#45;&gt;Dumper 1</title>
<path fill="none" stroke="black" d="M106.47,-77.57C116.85,-72.94 128.08,-67.93 138.73,-63.18"/>
<polygon fill="black" stroke="black" points="140.06,-66.42 147.77,-59.16 137.21,-60.03 140.06,-66.42"/>
</g>
<!-- Elasticsearch&#45;&gt;Dumper 2 -->
<g id="edge5" class="edge">
<title>Elasticsearch&#45;&gt;Dumper 2</title>
<path fill="none" stroke="black" d="M112.65,-96C120.85,-96 129.38,-96 137.61,-96"/>
<polygon fill="black" stroke="black" points="137.46,-99.5 147.46,-96 137.46,-92.5 137.46,-99.5"/>
</g>
<!-- Elasticsearch&#45;&gt;Dumper 3 -->
<g id="edge6" class="edge">
<title>Elasticsearch&#45;&gt;Dumper 3</title>
<path fill="none" stroke="black" d="M106.47,-114.43C116.85,-119.06 128.08,-124.07 138.73,-128.82"/>
<polygon fill="black" stroke="black" points="137.21,-131.97 147.77,-132.84 140.06,-125.58 137.21,-131.97"/>
</g>
<!-- Opensearch -->
<g id="node7" class="node">
<title>Opensearch</title>
<polygon fill="none" stroke="black" points="656.75,-135 566.5,-135 566.5,-99 656.75,-99 656.75,-135"/>
<text text-anchor="middle" x="611.62" y="-111.2" font-family="Helvetica,Arial,sans-serif" font-size="14.00">Opensearch</text>
</g>
<!-- Ingestion Lambda&#45;&gt;Opensearch -->
<g id="edge8" class="edge">
<title>Ingestion Lambda&#45;&gt;Opensearch</title>
<path fill="none" stroke="black" d="M483.67,-117C506.53,-117 532.33,-117 554.67,-117"/>
<polygon fill="black" stroke="black" points="554.49,-120.5 564.49,-117 554.49,-113.5 554.49,-120.5"/>
</g>
<!-- SQS -->
<g id="node8" class="node">
<title>SQS</title>
<polygon fill="none" stroke="black" points="638.62,-189 584.62,-189 584.62,-153 638.62,-153 638.62,-189"/>
<text text-anchor="middle" x="611.62" y="-165.2" font-family="Helvetica,Arial,sans-serif" font-size="14.00">SQS</text>
</g>
<!-- Ingestion Lambda&#45;&gt;SQS -->
<g id="edge9" class="edge">
<title>Ingestion Lambda&#45;&gt;SQS</title>
<path fill="none" stroke="black" d="M483.67,-134.61C513.41,-143.13 548.13,-153.09 573.74,-160.43"/>
<polygon fill="black" stroke="black" points="572.43,-163.69 583.01,-163.08 574.36,-156.96 572.43,-163.69"/>
<text text-anchor="middle" x="524.88" y="-152.7" font-family="Helvetica,Arial,sans-serif" font-size="14.00">on error</text>
</g>
<!-- SQS&#45;&gt;DLQ Lambda -->
<g id="edge10" class="edge">
<title>SQS&#45;&gt;DLQ Lambda</title>
<path fill="none" stroke="black" d="M639.04,-165.47C651.62,-162.84 667.2,-159.58 682.39,-156.4"/>
<polygon fill="black" stroke="black" points="682.78,-159.89 691.85,-154.42 681.35,-153.04 682.78,-159.89"/>
</g>
<!-- DLQ S3 -->
<g id="node10" class="node">
<title>DLQ S3</title>
<polygon fill="none" stroke="black" points="893.25,-162 828.5,-162 828.5,-126 893.25,-126 893.25,-162"/>
<text text-anchor="middle" x="860.88" y="-138.2" font-family="Helvetica,Arial,sans-serif" font-size="14.00">DLQ S3</text>
</g>
<!-- DLQ Lambda&#45;&gt;DLQ S3 -->
<g id="edge12" class="edge">
<title>DLQ Lambda&#45;&gt;DLQ S3</title>
<path fill="none" stroke="black" d="M791.92,-144C800.13,-144 808.62,-144 816.69,-144"/>
<polygon fill="black" stroke="black" points="816.63,-147.5 826.63,-144 816.63,-140.5 816.63,-147.5"/>
</g>
</g>
</svg>
